<svg width="207" height="48" viewBox="0 0 207 48" fill="none" xmlns="http://www.w3.org/2000/svg">
<path d="M23.5 48C36.4787 48 47 37.2548 47 24C47 10.7452 36.4787 0 23.5 0C10.5213 0 0 10.7452 0 24C0 37.2548 10.5213 48 23.5 48Z" fill="url(#paint0_linear)"/>
<path d="M23.5 48C36.4787 48 47 37.2548 47 24C47 10.7452 36.4787 0 23.5 0C10.5213 0 0 10.7452 0 24C0 37.2548 10.5213 48 23.5 48Z" fill="url(#paint1_radial)"/>
<path d="M36.3511 40.0658C27.7834 40.4261 19.2156 40.4261 10.648 40.0658C9.12984 39.9996 7.8333 38.6756 7.76849 37.125C7.41571 28.3751 7.41571 19.625 7.76849 10.875C7.8333 9.32459 9.12984 8.00037 10.648 7.93427C19.2156 7.57399 27.7834 7.57399 36.3511 7.93427C37.8693 8.00037 39.1659 9.32449 39.2306 10.875C39.5834 19.625 39.5834 28.3751 39.2306 37.125C39.1658 38.6755 37.8692 39.9998 36.3511 40.0658Z" fill="url(#paint2_linear)"/>
<path d="M39.3819 22.14C31.9845 17.8227 24.5372 13.2416 17.3894 9.00992C11.7494 11.6177 7.50644 17.441 7.50488 24C7.5495 32.7081 14.9737 40.2905 23.5005 40.3359C32.0272 40.2903 39.4516 32.7082 39.4961 24C39.4962 23.3708 39.4564 22.7508 39.3819 22.14Z" fill="url(#paint3_linear)"/>
<path d="M26.285 36.0026C17.6367 36.0269 10.2796 28.5428 10.3492 19.7473C10.374 17.3715 10.9337 15.1079 11.8946 13.0479C9.2117 15.9955 7.50143 19.8257 7.50391 24C7.54852 32.7082 14.9727 40.2905 23.4995 40.3359C29.7767 40.3355 35.358 36.1959 37.9981 30.6362C35.0227 33.8459 30.8545 35.9741 26.285 36.0026Z" fill="url(#paint4_linear)"/>
<path d="M23.4998 7.66406C21.3403 7.66369 19.2812 8.148 17.3887 9.00994C19.5532 16.7991 26.7918 22.5646 35.2591 22.5776C36.676 22.5824 38.0556 22.4283 39.3812 22.1401C38.3667 14.2706 31.4282 7.69041 23.4998 7.66406Z" fill="url(#paint5_linear)"/>
<path d="M32.0877 15.2297C33.1988 16.3644 33.2242 18.1685 32.1315 19.2775C31.0394 20.3865 29.2518 20.3817 28.1478 19.2534C27.043 18.1258 27.0383 16.3004 28.1242 15.185C29.21 14.0689 30.9767 14.0949 32.0877 15.2297Z" fill="url(#paint6_radial)"/>
<path d="M14.912 15.2297C16.0231 14.095 17.7897 14.0688 18.8755 15.185C19.9615 16.3004 19.9567 18.1258 18.8519 19.2535C17.7477 20.3818 15.9603 20.3864 14.8682 19.2776C13.7754 18.1687 13.801 16.3645 14.912 15.2297Z" fill="url(#paint7_radial)"/>
<path d="M14.9131 32.7703C13.8019 31.6357 13.7764 29.8316 14.8693 28.7225C15.9615 27.6135 17.7489 27.6183 18.853 28.7466C19.9579 29.8741 19.9624 31.6996 18.8766 32.815C17.7907 33.9312 16.0242 33.905 14.9131 32.7703Z" fill="url(#paint8_radial)"/>
<path d="M32.0877 32.7703C30.9766 33.9051 29.2101 33.9311 28.1242 32.815C27.0383 31.6997 27.0429 29.8742 28.1478 28.7466C29.2519 27.6182 31.0394 27.6137 32.1315 28.7225C33.2244 29.8315 33.1988 31.6356 32.0877 32.7703Z" fill="url(#paint9_radial)"/>
<path d="M26.3223 24C26.322 25.5904 25.0568 26.8826 23.4995 26.8828C21.9422 26.8825 20.677 25.5905 20.6768 24C20.677 22.4094 21.9422 21.1176 23.4995 21.1172C25.0568 21.1176 26.3219 22.4095 26.3223 24Z" fill="url(#paint10_radial)"/>
<path d="M71.6154 8.31033L69.0797 10.7453C68.9529 10.4061 68.7796 10.1032 68.5598 9.83672C68.3401 9.56213 68.0907 9.33196 67.8118 9.14621C67.5413 8.96046 67.2455 8.81913 66.9243 8.72222C66.6031 8.6253 66.2734 8.57685 65.9353 8.57685C65.462 8.57685 65.014 8.66972 64.5914 8.85547C64.1772 9.04122 63.8137 9.3037 63.501 9.64289C63.1967 9.97402 62.9558 10.3697 62.7783 10.8301C62.6008 11.2904 62.512 11.7992 62.512 12.3565C62.512 12.8087 62.6008 13.2327 62.7783 13.6285C62.9558 14.0242 63.1967 14.3715 63.501 14.6703C63.8137 14.9691 64.1772 15.2033 64.5914 15.3729C65.014 15.5425 65.462 15.6273 65.9353 15.6273C66.2734 15.6273 66.5988 15.5829 66.9116 15.494C67.2243 15.4052 67.5159 15.28 67.7864 15.1185C68.0654 14.9489 68.3105 14.747 68.5218 14.5128C68.7416 14.2705 68.9191 14.004 69.0543 13.7133L71.5901 16.1482C71.2689 16.5843 70.897 16.976 70.4743 17.3233C70.0602 17.6706 69.608 17.9653 69.1177 18.2076C68.6359 18.4499 68.1245 18.6316 67.5836 18.7528C67.0511 18.882 66.5016 18.9466 65.9353 18.9466C64.9802 18.9466 64.08 18.777 63.2347 18.4378C62.3979 18.0905 61.6626 17.6181 61.0286 17.0204C60.4031 16.4228 59.9086 15.7242 59.5452 14.9247C59.1817 14.1251 59 13.2691 59 12.3565C59 11.3631 59.1817 10.4344 59.5452 9.57021C59.9086 8.70606 60.4031 7.95498 61.0286 7.31697C61.6626 6.67088 62.3979 6.16208 63.2347 5.79058C64.08 5.41908 64.9802 5.23333 65.9353 5.23333C66.5016 5.23333 67.0553 5.30198 67.5962 5.43927C68.1457 5.57657 68.6655 5.77847 69.1557 6.04498C69.6544 6.30342 70.1109 6.62242 70.5251 7.002C70.9477 7.38158 71.3111 7.81769 71.6154 8.31033Z" fill="white"/>
<path d="M86.2595 18.7043H85.4227L84.0787 16.9235C83.7491 17.2062 83.3983 17.4727 83.0264 17.7231C82.6629 17.9653 82.2783 18.1794 81.8726 18.3651C81.4669 18.5428 81.0485 18.6841 80.6174 18.7891C80.1948 18.8941 79.7637 18.9466 79.3242 18.9466C78.369 18.9466 77.4688 18.7931 76.6236 18.4863C75.7868 18.1794 75.0514 17.7352 74.4175 17.1537C73.792 16.5641 73.2975 15.8454 72.934 14.9974C72.5706 14.1494 72.3888 13.1843 72.3888 12.1021C72.3888 11.0926 72.5706 10.1678 72.934 9.32793C73.2975 8.47993 73.792 7.75308 74.4175 7.14737C75.0514 6.54166 75.7868 6.07325 76.6236 5.74213C77.4688 5.40293 78.369 5.23333 79.3242 5.23333C79.7637 5.23333 80.199 5.28582 80.6301 5.39081C81.0612 5.4958 81.4796 5.64117 81.8853 5.82692C82.291 6.01268 82.6756 6.23073 83.0391 6.48109C83.411 6.73145 83.7575 7.002 84.0787 7.29274L85.4227 5.75424H86.2595V18.7043ZM82.7728 12.1021C82.7728 11.6498 82.6798 11.2137 82.4939 10.7937C82.3164 10.3657 82.0712 9.99017 81.7585 9.66712C81.4458 9.336 81.0781 9.07353 80.6554 8.8797C80.2413 8.6778 79.7975 8.57685 79.3242 8.57685C78.8508 8.57685 78.4028 8.65357 77.9802 8.80702C77.566 8.96046 77.2026 9.18659 76.8898 9.48541C76.5855 9.78423 76.3446 10.1557 76.1671 10.5999C75.9896 11.036 75.9009 11.5367 75.9009 12.1021C75.9009 12.6674 75.9896 13.1722 76.1671 13.6163C76.3446 14.0525 76.5855 14.4199 76.8898 14.7187C77.2026 15.0176 77.566 15.2437 77.9802 15.3971C78.4028 15.5506 78.8508 15.6273 79.3242 15.6273C79.7975 15.6273 80.2413 15.5304 80.6554 15.3366C81.0781 15.1347 81.4458 14.8722 81.7585 14.5491C82.0712 14.218 82.3164 13.8425 82.4939 13.4225C82.6798 12.9945 82.7728 12.5543 82.7728 12.1021Z" fill="white"/>
<path d="M96.3645 18.7043H88.4529V15.4092H96.3645C96.6012 15.4092 96.8041 15.3285 96.9731 15.167C97.1422 15.0054 97.2267 14.8116 97.2267 14.5855C97.2267 14.3513 97.1422 14.1978 96.9731 14.1251C96.8041 14.0525 96.6012 14.0161 96.3645 14.0161H92.7637C92.1636 14.0161 91.6015 13.9071 91.0774 13.689C90.5534 13.471 90.0969 13.1762 89.7081 12.8047C89.3193 12.4251 89.0108 11.985 88.7826 11.4843C88.5628 10.9835 88.4529 10.4465 88.4529 9.87306C88.4529 9.29966 88.5628 8.7626 88.7826 8.26188C89.0108 7.76116 89.3193 7.32505 89.7081 6.95354C90.0969 6.58204 90.5534 6.2913 91.0774 6.08132C91.6015 5.86327 92.1636 5.75424 92.7637 5.75424H99.7751V9.0493H92.7637C92.5271 9.0493 92.3242 9.13006 92.1551 9.29158C91.9861 9.45311 91.9016 9.64693 91.9016 9.87306C91.9016 10.1073 91.9861 10.3092 92.1551 10.4788C92.3242 10.6403 92.5271 10.7211 92.7637 10.7211H96.3645C96.9562 10.7211 97.5141 10.818 98.0381 11.0118C98.5622 11.1975 99.0186 11.46 99.4074 11.7992C99.7963 12.1384 100.105 12.5463 100.333 13.0228C100.561 13.4992 100.675 14.0202 100.675 14.5855C100.675 15.1589 100.561 15.696 100.333 16.1967C100.105 16.6893 99.7963 17.1254 99.4074 17.505C99.0186 17.8765 98.5622 18.1713 98.0381 18.3893C97.5141 18.5993 96.9562 18.7043 96.3645 18.7043Z" fill="white"/>
<path d="M106.609 2.20478C106.609 2.51168 106.546 2.79838 106.419 3.06489C106.3 3.3314 106.136 3.56561 105.924 3.76751C105.713 3.96134 105.464 4.11882 105.176 4.23997C104.897 4.35303 104.597 4.40956 104.276 4.40956C103.955 4.40956 103.651 4.35303 103.363 4.23997C103.084 4.11882 102.839 3.96134 102.628 3.76751C102.425 3.56561 102.26 3.3314 102.133 3.06489C102.015 2.79838 101.956 2.51168 101.956 2.20478C101.956 1.90597 102.015 1.6233 102.133 1.35679C102.26 1.0822 102.425 0.847993 102.628 0.654166C102.839 0.452263 103.084 0.294779 103.363 0.181713C103.651 0.0605709 103.955 0 104.276 0C104.597 0 104.897 0.0605709 105.176 0.181713C105.464 0.294779 105.713 0.452263 105.924 0.654166C106.136 0.847993 106.3 1.0822 106.419 1.35679C106.546 1.6233 106.609 1.90597 106.609 2.20478ZM106.013 18.7043H102.526V5.73001H106.013V18.7043Z" fill="white"/>
<path d="M112.124 18.7043H108.663V5.73001H109.5L110.641 6.98989C111.199 6.50532 111.828 6.13382 112.53 5.87538C113.24 5.60887 113.98 5.47561 114.749 5.47561C115.577 5.47561 116.359 5.62906 117.094 5.93595C117.83 6.23477 118.472 6.65069 119.022 7.18371C119.571 7.70866 120.002 8.32649 120.315 9.03718C120.636 9.73981 120.797 10.4909 120.797 11.2904V18.7043H117.335V11.2904C117.335 10.9512 117.268 10.6322 117.132 10.3334C116.997 10.0265 116.811 9.76 116.575 9.53387C116.338 9.30774 116.063 9.13006 115.75 9.00084C115.438 8.87162 115.104 8.80702 114.749 8.80702C114.385 8.80702 114.043 8.87162 113.722 9.00084C113.401 9.13006 113.122 9.30774 112.885 9.53387C112.648 9.76 112.462 10.0265 112.327 10.3334C112.192 10.6322 112.124 10.9512 112.124 11.2904V18.7043Z" fill="white"/>
<path d="M136.392 12.1021C136.392 13.0712 136.21 13.9757 135.846 14.8157C135.483 15.6475 134.988 16.3703 134.363 16.9841C133.737 17.5898 133.002 18.0703 132.157 18.4257C131.32 18.773 130.42 18.9466 129.456 18.9466C128.501 18.9466 127.601 18.773 126.756 18.4257C125.919 18.0703 125.184 17.5898 124.55 16.9841C123.924 16.3703 123.43 15.6475 123.066 14.8157C122.703 13.9757 122.521 13.0712 122.521 12.1021C122.521 11.1168 122.703 10.2042 123.066 9.36427C123.43 8.52435 123.924 7.80154 124.55 7.19583C125.184 6.58204 125.919 6.10151 126.756 5.75424C127.601 5.40697 128.501 5.23333 129.456 5.23333C130.42 5.23333 131.32 5.39889 132.157 5.73001C133.002 6.05306 133.737 6.51743 134.363 7.12314C134.988 7.72078 135.483 8.44359 135.846 9.29158C136.21 10.1315 136.392 11.0683 136.392 12.1021ZM132.905 12.1021C132.905 11.5691 132.812 11.0885 132.626 10.6605C132.448 10.2244 132.203 9.85287 131.891 9.54598C131.578 9.23101 131.21 8.99277 130.788 8.83124C130.373 8.66164 129.93 8.57685 129.456 8.57685C128.983 8.57685 128.535 8.66164 128.112 8.83124C127.698 8.99277 127.335 9.23101 127.022 9.54598C126.718 9.85287 126.477 10.2244 126.299 10.6605C126.122 11.0885 126.033 11.5691 126.033 12.1021C126.033 12.6028 126.122 13.0672 126.299 13.4952C126.477 13.9232 126.718 14.2947 127.022 14.6097C127.335 14.9247 127.698 15.175 128.112 15.3608C128.535 15.5385 128.983 15.6273 129.456 15.6273C129.93 15.6273 130.373 15.5425 130.788 15.3729C131.21 15.2033 131.578 14.9651 131.891 14.6582C132.203 14.3513 132.448 13.9798 132.626 13.5437C132.812 13.1076 132.905 12.627 132.905 12.1021Z" fill="white"/>
<path d="M150.985 15.5304C151.12 15.5708 151.255 15.599 151.391 15.6152C151.526 15.6233 151.661 15.6273 151.796 15.6273C152.134 15.6273 152.46 15.5829 152.773 15.494C153.085 15.4052 153.377 15.28 153.647 15.1185C153.926 14.9489 154.172 14.747 154.383 14.5128C154.603 14.2705 154.78 14.004 154.915 13.7133L157.451 16.1482C157.13 16.5843 156.758 16.976 156.335 17.3233C155.921 17.6706 155.469 17.9653 154.979 18.2076C154.497 18.4499 153.986 18.6316 153.445 18.7528C152.912 18.882 152.363 18.9466 151.796 18.9466C150.841 18.9466 149.941 18.777 149.096 18.4378C148.259 18.0986 147.524 17.6261 146.89 17.0204C146.264 16.4147 145.77 15.696 145.406 14.8641C145.043 14.0242 144.861 13.1035 144.861 12.1021C144.861 11.0764 145.043 10.1396 145.406 9.29158C145.77 8.44359 146.264 7.72078 146.89 7.12314C147.524 6.52551 148.259 6.06113 149.096 5.73001C149.941 5.39889 150.841 5.23333 151.796 5.23333C152.363 5.23333 152.916 5.29794 153.457 5.42716C153.998 5.55637 154.51 5.74213 154.991 5.98441C155.482 6.22669 155.938 6.52551 156.361 6.88086C156.783 7.22813 157.155 7.61982 157.476 8.05594L150.985 15.5304ZM152.76 8.7101C152.599 8.65357 152.439 8.61723 152.278 8.60107C152.126 8.58492 151.965 8.57685 151.796 8.57685C151.323 8.57685 150.875 8.66164 150.452 8.83124C150.038 8.99277 149.675 9.22697 149.362 9.53387C149.058 9.84076 148.817 10.2123 148.639 10.6484C148.462 11.0764 148.373 11.561 148.373 12.1021C148.373 12.2232 148.377 12.3605 148.386 12.514C148.403 12.6674 148.424 12.8249 148.449 12.9864C148.483 13.1399 148.521 13.2893 148.563 13.4346C148.606 13.58 148.66 13.7092 148.728 13.8223L152.76 8.7101Z" fill="white"/>
<path d="M162.687 18.7043H159.226V5.73001H160.063L161.204 6.98989C161.762 6.50532 162.392 6.13382 163.093 5.87538C163.803 5.60887 164.543 5.47561 165.312 5.47561C166.14 5.47561 166.922 5.62906 167.658 5.93595C168.393 6.23477 169.035 6.65069 169.585 7.18371C170.134 7.70866 170.565 8.32649 170.878 9.03718C171.199 9.73981 171.36 10.4909 171.36 11.2904V18.7043H167.898V11.2904C167.898 10.9512 167.831 10.6322 167.696 10.3334C167.56 10.0265 167.374 9.76 167.138 9.53387C166.901 9.30774 166.626 9.13006 166.314 9.00084C166.001 8.87162 165.667 8.80702 165.312 8.80702C164.949 8.80702 164.606 8.87162 164.285 9.00084C163.964 9.13006 163.685 9.30774 163.448 9.53387C163.212 9.76 163.026 10.0265 162.89 10.3334C162.755 10.6322 162.687 10.9512 162.687 11.2904V18.7043Z" fill="white"/>
<path d="M63.2347 41.0332H59.7481V22.8982H63.2347V41.0332Z" fill="white"/>
<path d="M69.9672 24.5337C69.9672 24.8405 69.9038 25.1273 69.777 25.3938C69.6587 25.6603 69.4938 25.8945 69.2825 26.0964C69.0712 26.2902 68.8219 26.4477 68.5345 26.5688C68.2555 26.6819 67.9555 26.7384 67.6343 26.7384C67.3131 26.7384 67.0088 26.6819 66.7214 26.5688C66.4425 26.4477 66.1974 26.2902 65.986 26.0964C65.7832 25.8945 65.6184 25.6603 65.4916 25.3938C65.3732 25.1273 65.3141 24.8405 65.3141 24.5337C65.3141 24.2348 65.3732 23.9522 65.4916 23.6857C65.6184 23.4111 65.7832 23.1769 65.986 22.983C66.1974 22.7811 66.4425 22.6237 66.7214 22.5106C67.0088 22.3894 67.3131 22.3289 67.6343 22.3289C67.9555 22.3289 68.2555 22.3894 68.5345 22.5106C68.8219 22.6237 69.0712 22.7811 69.2825 22.983C69.4938 23.1769 69.6587 23.4111 69.777 23.6857C69.9038 23.9522 69.9672 24.2348 69.9672 24.5337ZM69.3713 41.0332H65.8846V28.0589H69.3713V41.0332Z" fill="white"/>
<path d="M81.6824 34.431C81.6824 33.9787 81.5895 33.5426 81.4035 33.1226C81.226 32.6946 80.9809 32.319 80.6681 31.996C80.3554 31.6649 79.9877 31.4024 79.5651 31.2086C79.1509 31.0067 78.7071 30.9057 78.2338 30.9057C77.7604 30.9057 77.3125 30.9824 76.8898 31.1359C76.4757 31.2893 76.1122 31.5155 75.7995 31.8143C75.4952 32.1131 75.2543 32.4846 75.0768 32.9288C74.8993 33.3649 74.8105 33.8656 74.8105 34.431C74.8105 34.972 74.8993 35.4607 75.0768 35.8968C75.2543 36.3248 75.4952 36.6923 75.7995 36.9992C76.1122 37.306 76.4757 37.5443 76.8898 37.7139C77.3125 37.8754 77.7604 37.9562 78.2338 37.9562C78.7071 37.9562 79.1509 37.8593 79.5651 37.6654C79.9877 37.4635 80.3554 37.2011 80.6681 36.878C80.9809 36.5469 81.226 36.1714 81.4035 35.7514C81.5895 35.3234 81.6824 34.8832 81.6824 34.431ZM85.1691 39.3978C85.1691 40.3104 84.9874 41.1664 84.6239 41.966C84.2605 42.7655 83.7618 43.4641 83.1278 44.0617C82.5023 44.6594 81.767 45.1318 80.9217 45.4791C80.0849 45.8264 79.1889 46 78.2338 46L76.4968 45.9758V42.6686L78.2084 42.6928C78.7494 42.6928 79.2101 42.6242 79.5904 42.4869C79.9708 42.3577 80.292 42.176 80.554 41.9417C80.816 41.7156 81.0231 41.4531 81.1753 41.1543C81.3359 40.8555 81.4627 40.5405 81.5556 40.2094C81.4204 40.4194 81.226 40.593 80.9724 40.7303C80.7188 40.8595 80.4357 40.9645 80.1229 41.0453C79.8186 41.1341 79.4974 41.1947 79.1593 41.227C78.8297 41.2593 78.5212 41.2755 78.2338 41.2755C77.2786 41.2755 76.3785 41.118 75.5332 40.803C74.6964 40.488 73.961 40.0398 73.3271 39.4583C72.7016 38.8688 72.2071 38.15 71.8437 37.302C71.4802 36.454 71.2985 35.497 71.2985 34.431C71.2985 33.4537 71.4802 32.5452 71.8437 31.7053C72.2071 30.8653 72.7016 30.1385 73.3271 29.5247C73.961 28.9109 74.6964 28.4304 75.5332 28.0831C76.3785 27.7358 77.2786 27.5622 78.2338 27.5622C78.6733 27.5622 79.1086 27.6147 79.5397 27.7197C79.9708 27.8247 80.3892 27.97 80.7949 28.1558C81.2006 28.3415 81.5852 28.5596 81.9487 28.81C82.3206 29.0603 82.6672 29.3309 82.9883 29.6216L84.3323 28.0831H85.1691V39.3978Z" fill="white"/>
<path d="M91.2803 41.0332H87.819V28.0589H88.6558L89.7969 29.3188C90.3548 28.8342 90.9845 28.4627 91.686 28.2043C92.396 27.9377 93.1356 27.8045 93.9048 27.8045C94.7332 27.8045 95.515 27.9579 96.2504 28.2648C96.9858 28.5636 97.6282 28.9796 98.1776 29.5126C98.727 30.0375 99.1581 30.6554 99.4708 31.3661C99.792 32.0687 99.9526 32.8198 99.9526 33.6193V41.0332H96.4913V33.6193C96.4913 33.2801 96.4237 32.9611 96.2884 32.6623C96.1532 32.3554 95.9672 32.0889 95.7306 31.8627C95.4939 31.6366 95.2192 31.4589 94.9065 31.3297C94.5937 31.2005 94.2598 31.1359 93.9048 31.1359C93.5414 31.1359 93.199 31.2005 92.8778 31.3297C92.5566 31.4589 92.2777 31.6366 92.041 31.8627C91.8044 32.0889 91.6184 32.3554 91.4832 32.6623C91.3479 32.9611 91.2803 33.2801 91.2803 33.6193V41.0332Z" fill="white"/>
<path d="M107.826 37.8593C107.961 37.8996 108.097 37.9279 108.232 37.9441C108.367 37.9521 108.502 37.9562 108.638 37.9562C108.976 37.9562 109.301 37.9118 109.614 37.8229C109.927 37.7341 110.218 37.6089 110.489 37.4474C110.768 37.2778 111.013 37.0759 111.224 36.8417C111.444 36.5994 111.621 36.3329 111.757 36.0421L114.292 38.4771C113.971 38.9132 113.599 39.3049 113.177 39.6522C112.762 39.9994 112.31 40.2942 111.82 40.5365C111.338 40.7788 110.827 40.9605 110.286 41.0816C109.753 41.2109 109.204 41.2755 108.638 41.2755C107.682 41.2755 106.782 41.1059 105.937 40.7667C105.1 40.4275 104.365 39.955 103.731 39.3493C103.105 38.7436 102.611 38.0248 102.247 37.193C101.884 36.3531 101.702 35.4324 101.702 34.431C101.702 33.4053 101.884 32.4684 102.247 31.6205C102.611 30.7725 103.105 30.0497 103.731 29.452C104.365 28.8544 105.1 28.39 105.937 28.0589C106.782 27.7278 107.682 27.5622 108.638 27.5622C109.204 27.5622 109.758 27.6268 110.299 27.756C110.84 27.8852 111.351 28.071 111.833 28.3133C112.323 28.5556 112.779 28.8544 113.202 29.2097C113.625 29.557 113.997 29.9487 114.318 30.3848L107.826 37.8593ZM109.601 31.039C109.441 30.9824 109.28 30.9461 109.119 30.9299C108.967 30.9138 108.807 30.9057 108.638 30.9057C108.164 30.9057 107.716 30.9905 107.294 31.1601C106.879 31.3216 106.516 31.5558 106.203 31.8627C105.899 32.1696 105.658 32.5411 105.481 32.9772C105.303 33.4053 105.214 33.8898 105.214 34.431C105.214 34.5521 105.219 34.6894 105.227 34.8428C105.244 34.9963 105.265 35.1538 105.29 35.3153C105.324 35.4687 105.362 35.6181 105.405 35.7635C105.447 35.9089 105.502 36.0381 105.569 36.1512L109.601 31.039Z" fill="white"/>
<path d="M133.006 34.431C133.006 33.9787 132.913 33.5426 132.727 33.1226C132.55 32.6946 132.305 32.319 131.992 31.996C131.679 31.6649 131.312 31.4024 130.889 31.2086C130.475 31.0067 130.031 30.9057 129.558 30.9057C129.084 30.9057 128.636 30.9824 128.214 31.1359C127.8 31.2893 127.436 31.5155 127.123 31.8143C126.819 32.1131 126.578 32.4846 126.401 32.9288C126.223 33.3649 126.134 33.8656 126.134 34.431C126.134 34.972 126.223 35.4607 126.401 35.8968C126.578 36.3248 126.819 36.6923 127.123 36.9992C127.436 37.306 127.8 37.5443 128.214 37.7139C128.636 37.8754 129.084 37.9562 129.558 37.9562C130.031 37.9562 130.475 37.8593 130.889 37.6654C131.312 37.4635 131.679 37.2011 131.992 36.878C132.305 36.5469 132.55 36.1714 132.727 35.7514C132.913 35.3234 133.006 34.8832 133.006 34.431ZM136.493 39.3978C136.493 40.3104 136.311 41.1664 135.948 41.966C135.584 42.7655 135.086 43.4641 134.452 44.0617C133.826 44.6594 133.091 45.1318 132.246 45.4791C131.409 45.8264 130.513 46 129.558 46L127.821 45.9758V42.6686L129.532 42.6928C130.073 42.6928 130.534 42.6242 130.914 42.4869C131.295 42.3577 131.616 42.176 131.878 41.9417C132.14 41.7156 132.347 41.4531 132.499 41.1543C132.66 40.8555 132.787 40.5405 132.88 40.2094C132.744 40.4194 132.55 40.593 132.296 40.7303C132.043 40.8595 131.76 40.9645 131.447 41.0453C131.143 41.1341 130.821 41.1947 130.483 41.227C130.154 41.2593 129.845 41.2755 129.558 41.2755C128.603 41.2755 127.702 41.118 126.857 40.803C126.02 40.488 125.285 40.0398 124.651 39.4583C124.026 38.8688 123.531 38.15 123.168 37.302C122.804 36.454 122.622 35.497 122.622 34.431C122.622 33.4537 122.804 32.5452 123.168 31.7053C123.531 30.8653 124.026 30.1385 124.651 29.5247C125.285 28.9109 126.02 28.4304 126.857 28.0831C127.702 27.7358 128.603 27.5622 129.558 27.5622C129.997 27.5622 130.433 27.6147 130.864 27.7197C131.295 27.8247 131.713 27.97 132.119 28.1558C132.525 28.3415 132.909 28.5596 133.273 28.81C133.645 29.0603 133.991 29.3309 134.312 29.6216L135.656 28.0831H136.493V39.3978Z" fill="white"/>
<path d="M142.604 41.0332H139.143V28.0589H139.98L141.121 29.5974C141.679 29.1128 142.313 28.7413 143.023 28.4829C143.733 28.2164 144.468 28.0831 145.229 28.0831H148.284V31.3782H145.229C144.865 31.3782 144.523 31.4428 144.202 31.572C143.881 31.7012 143.602 31.8789 143.365 32.105C143.128 32.3312 142.942 32.5977 142.807 32.9046C142.672 33.2115 142.604 33.5385 142.604 33.8858V41.0332Z" fill="white"/>
<path d="M162.789 41.0332H161.952L160.608 39.2524C160.279 39.5351 159.928 39.8016 159.556 40.0519C159.192 40.2942 158.808 40.5082 158.402 40.694C157.996 40.8717 157.578 41.013 157.147 41.118C156.724 41.223 156.293 41.2755 155.854 41.2755C154.898 41.2755 153.998 41.122 153.153 40.8151C152.316 40.5082 151.581 40.064 150.947 39.4826C150.321 38.893 149.827 38.1742 149.463 37.3262C149.1 36.4782 148.918 35.5131 148.918 34.431C148.918 33.4214 149.1 32.4967 149.463 31.6568C149.827 30.8088 150.321 30.082 150.947 29.4762C151.581 28.8705 152.316 28.4021 153.153 28.071C153.998 27.7318 154.898 27.5622 155.854 27.5622C156.293 27.5622 156.728 27.6147 157.16 27.7197C157.591 27.8247 158.009 27.97 158.415 28.1558C158.82 28.3415 159.205 28.5596 159.568 28.81C159.94 29.0603 160.287 29.3309 160.608 29.6216L161.952 28.0831H162.789V41.0332ZM159.302 34.431C159.302 33.9787 159.209 33.5426 159.023 33.1226C158.846 32.6946 158.601 32.319 158.288 31.996C157.975 31.6649 157.607 31.4024 157.185 31.2086C156.771 31.0067 156.327 30.9057 155.854 30.9057C155.38 30.9057 154.932 30.9824 154.51 31.1359C154.095 31.2893 153.732 31.5155 153.419 31.8143C153.115 32.1131 152.874 32.4846 152.697 32.9288C152.519 33.3649 152.43 33.8656 152.43 34.431C152.43 34.9963 152.519 35.501 152.697 35.9452C152.874 36.3813 153.115 36.7488 153.419 37.0476C153.732 37.3464 154.095 37.5726 154.51 37.726C154.932 37.8795 155.38 37.9562 155.854 37.9562C156.327 37.9562 156.771 37.8593 157.185 37.6654C157.607 37.4635 157.975 37.2011 158.288 36.878C158.601 36.5469 158.846 36.1714 159.023 35.7514C159.209 35.3234 159.302 34.8832 159.302 34.431Z" fill="white"/>
<path d="M172.247 41.0332C171.411 41.0332 170.624 40.8838 169.889 40.585C169.154 40.2781 168.507 39.8621 167.949 39.3372C167.4 38.8042 166.964 38.1863 166.643 37.4837C166.331 36.7811 166.174 36.03 166.174 35.2305V31.3782H164.488V28.0831H166.174V22.8982H169.623V28.0831H174.872V31.3782H169.623V35.2305C169.623 35.5778 169.69 35.9048 169.826 36.2117C169.961 36.5106 170.147 36.773 170.384 36.9992C170.62 37.2253 170.899 37.407 171.22 37.5443C171.542 37.6735 171.884 37.7381 172.247 37.7381H174.872V41.0332H172.247Z" fill="white"/>
<path d="M186.803 39.5189C186.524 39.7612 186.224 39.9914 185.902 40.2094C185.59 40.4194 185.26 40.6051 184.913 40.7667C184.567 40.9201 184.208 41.0413 183.836 41.1301C183.472 41.227 183.1 41.2755 182.72 41.2755C181.883 41.2755 181.097 41.1341 180.362 40.8515C179.626 40.5688 178.98 40.169 178.422 39.6522C177.872 39.1272 177.437 38.4932 177.116 37.7502C176.803 36.9992 176.647 36.1592 176.647 35.2305V28.0589H180.096V35.2305C180.096 35.6666 180.163 36.0583 180.298 36.4056C180.442 36.7448 180.632 37.0315 180.869 37.2657C181.106 37.4999 181.38 37.6776 181.693 37.7987C182.014 37.9198 182.357 37.9804 182.72 37.9804C183.075 37.9804 183.409 37.9037 183.722 37.7502C184.043 37.5887 184.322 37.3787 184.558 37.1203C184.795 36.8619 184.981 36.5711 185.116 36.2481C185.252 35.917 185.319 35.5778 185.319 35.2305V28.0589H188.781V41.0332H187.944L186.803 39.5189Z" fill="white"/>
<path d="M195.513 24.5337C195.513 24.8405 195.45 25.1273 195.323 25.3938C195.204 25.6603 195.04 25.8945 194.828 26.0964C194.617 26.2902 194.368 26.4477 194.08 26.5688C193.801 26.6819 193.501 26.7384 193.18 26.7384C192.859 26.7384 192.555 26.6819 192.267 26.5688C191.988 26.4477 191.743 26.2902 191.532 26.0964C191.329 25.8945 191.164 25.6603 191.037 25.3938C190.919 25.1273 190.86 24.8405 190.86 24.5337C190.86 24.2348 190.919 23.9522 191.037 23.6857C191.164 23.4111 191.329 23.1769 191.532 22.983C191.743 22.7811 191.988 22.6237 192.267 22.5106C192.555 22.3894 192.859 22.3289 193.18 22.3289C193.501 22.3289 193.801 22.3894 194.08 22.5106C194.368 22.6237 194.617 22.7811 194.828 22.983C195.04 23.1769 195.204 23.4111 195.323 23.6857C195.45 23.9522 195.513 24.2348 195.513 24.5337ZM194.917 41.0332H191.43V28.0589H194.917V41.0332Z" fill="white"/>
<path d="M204.375 41.0332C203.539 41.0332 202.753 40.8838 202.017 40.585C201.282 40.2781 200.635 39.8621 200.077 39.3372C199.528 38.8042 199.093 38.1863 198.771 37.4837C198.459 36.7811 198.302 36.03 198.302 35.2305V31.3782H196.616V28.0831H198.302V22.8982H201.751V28.0831H207V31.3782H201.751V35.2305C201.751 35.5778 201.819 35.9048 201.954 36.2117C202.089 36.5106 202.275 36.773 202.512 36.9992C202.748 37.2253 203.027 37.407 203.348 37.5443C203.67 37.6735 204.012 37.7381 204.375 37.7381H207V41.0332H204.375Z" fill="white"/>
<defs>
<linearGradient id="paint0_linear" x1="6.88302" y1="40.9705" x2="40.8167" y2="7.74385" gradientUnits="userSpaceOnUse">
<stop stop-color="#FF2F2B"/>
<stop offset="1" stop-color="#FFBDAB"/>
</linearGradient>
<radialGradient id="paint1_radial" cx="0" cy="0" r="1" gradientUnits="userSpaceOnUse" gradientTransform="translate(23.5001 24) scale(23.5 24)">
<stop stop-color="#FF2F2B"/>
<stop offset="0.1344" stop-color="#FF3935" stop-opacity="0.866"/>
<stop offset="0.3677" stop-color="#FF564E" stop-opacity="0.632"/>
<stop offset="0.6719" stop-color="#FF8478" stop-opacity="0.328"/>
<stop offset="1" stop-color="#FFBDAB" stop-opacity="0"/>
</radialGradient>
<linearGradient id="paint2_linear" x1="-8.15304" y1="56.3261" x2="49.9133" y2="-0.530519" gradientUnits="userSpaceOnUse">
<stop stop-color="#FFBDAB"/>
<stop offset="0.0606" stop-color="#FFC2B4"/>
<stop offset="0.5" stop-color="#FFE3F1"/>
<stop offset="1" stop-color="white"/>
</linearGradient>
<linearGradient id="paint3_linear" x1="7.92256" y1="39.9156" x2="46.8445" y2="1.8047" gradientUnits="userSpaceOnUse">
<stop stop-color="#FFB5D3"/>
<stop offset="0.2266" stop-color="#FFB9D5"/>
<stop offset="0.4631" stop-color="#FFC6DD"/>
<stop offset="0.7042" stop-color="#FFDBE9"/>
<stop offset="0.947" stop-color="#FFF8FB"/>
<stop offset="1" stop-color="white"/>
</linearGradient>
<linearGradient id="paint4_linear" x1="-7.98442" y1="56.1615" x2="49.8396" y2="-0.457815" gradientUnits="userSpaceOnUse">
<stop stop-color="#FF91BB"/>
<stop offset="0.1623" stop-color="#FF97BE"/>
<stop offset="0.3688" stop-color="#FFA6C8"/>
<stop offset="0.5994" stop-color="#FFC0D8"/>
<stop offset="0.8456" stop-color="#FFE4EF"/>
<stop offset="1" stop-color="white"/>
</linearGradient>
<linearGradient id="paint5_linear" x1="2.65408" y1="41.8533" x2="41.2618" y2="4.04987" gradientUnits="userSpaceOnUse">
<stop stop-color="#FFB5D3"/>
<stop offset="0.2266" stop-color="#FFB9D5"/>
<stop offset="0.4631" stop-color="#FFC6DD"/>
<stop offset="0.7042" stop-color="#FFDBE9"/>
<stop offset="0.947" stop-color="#FFF8FB"/>
<stop offset="1" stop-color="white"/>
</linearGradient>
<radialGradient id="paint6_radial" cx="0" cy="0" r="1" gradientUnits="userSpaceOnUse" gradientTransform="translate(30.1137 17.2425) rotate(-45.6031) scale(5.74361 5.74233)">
<stop stop-color="#FF6E70"/>
<stop offset="1" stop-color="#FF2F2B"/>
</radialGradient>
<radialGradient id="paint7_radial" cx="0" cy="0" r="1" gradientUnits="userSpaceOnUse" gradientTransform="translate(16.883 17.2457) rotate(-134.397) scale(5.74362 5.74234)">
<stop stop-color="#FF6E70"/>
<stop offset="1" stop-color="#FF2F2B"/>
</radialGradient>
<radialGradient id="paint8_radial" cx="0" cy="0" r="1" gradientUnits="userSpaceOnUse" gradientTransform="translate(16.887 30.7574) rotate(134.397) scale(5.74361 5.74233)">
<stop stop-color="#FF6E70"/>
<stop offset="1" stop-color="#FF2F2B"/>
</radialGradient>
<radialGradient id="paint9_radial" cx="0" cy="0" r="1" gradientUnits="userSpaceOnUse" gradientTransform="translate(30.1168 30.7543) rotate(45.603) scale(5.74361 5.74234)">
<stop stop-color="#FF6E70"/>
<stop offset="1" stop-color="#FF2F2B"/>
</radialGradient>
<radialGradient id="paint10_radial" cx="0" cy="0" r="1" gradientUnits="userSpaceOnUse" gradientTransform="translate(23.4995 24) scale(5.70977 5.83125)">
<stop stop-color="#FF6E70"/>
<stop offset="1" stop-color="#FF2F2B"/>
</radialGradient>
</defs>
</svg>
